<svg width="512" height="512" viewBox="0 0 512 512" xmlns="http://www.w3.org/2000/svg"><g fill="#4DABF7" fill-rule="nonzero"><path d="M300 104c-4.968 0-9 4.032-9 9s4.032 9 9 9 9-4.032 9-9-4.032-9-9-9zM212 104c-4.968 0-9 4.032-9 9s4.032 9 9 9 9-4.032 9-9-4.032-9-9-9z"/><path d="M446.69 293.69C454.23 282.366 458 268.24 458 256c0-18.454-8.192-35.598-22.248-47.225 3.11-7.439 4.683-15.176 4.683-23.088 0-24.481-14.277-47.287-35.504-57.937 3.22-26.731-14.185-51.233-39.978-57.483C354.857 46.912 332.387 31 308.696 31 286.643 31 266.863 43.872 256 62.655 245.136 43.872 225.357 31 203.304 31c-23.692 0-46.163 15.912-56.257 39.268-25.948 6.29-43.19 30.914-39.978 57.482-21.226 10.649-35.504 33.456-35.504 57.938 0 7.911 1.572 15.648 4.683 23.087C62.192 220.403 54 237.546 54 256c0 12.305 3.803 26.413 11.31 37.688C57.973 304.051 54 316.332 54 328.95c0 16.362 6.63 31.948 18.355 43.522-6.029 36.467 23.033 73.373 60.688 73.373.273 0 .54-.005.803-.013C146.331 467.384 169.504 481 194.522 481c26.074 0 49.372-15.662 61.478-38.227C268.106 465.338 291.404 481 317.478 481c25.018 0 48.191-13.616 60.676-35.169.263.008.53.013.803.013 33.324 0 61.478-29.382 61.478-64.16 0-2.961-.26-6.007-.79-9.213C451.371 360.897 458 345.31 458 328.949c0-12.617-3.974-24.898-11.31-35.26zM247.218 164.05a34.883 34.883 0 0 0-17.565-4.73c-4.85 0-8.782 3.935-8.782 8.79 0 4.854 3.932 8.788 8.782 8.788 9.686 0 17.565 7.886 17.565 17.579v167.14c-12.885-14.626-31.725-23.879-52.695-23.879-4.85 0-8.783 3.935-8.783 8.79 0 4.854 3.932 8.788 8.783 8.788 29.056 0 52.695 23.657 52.695 52.735 0 30.014-24.132 55.37-52.695 55.37-20.334 0-39.052-12.032-47.689-30.655a8.786 8.786 0 0 0-8.958-5.033c-.621.071-1.239.154-1.856.238-24.995 3.42-53.144-24.904-45.524-56.59a8.792 8.792 0 0 0-2.92-8.811c-10.175-8.472-16.01-20.726-16.01-33.62 0-7.973 2.253-15.775 6.445-22.617 10.534 8.64 23.637 13.827 37.468 13.827 4.85 0 8.783-3.935 8.783-8.789 0-4.854-3.932-8.789-8.783-8.789-23.835 0-43.913-21.77-43.913-46.582 0-15.051 7.667-28.898 20.51-37.039a8.792 8.792 0 0 0 2.939-11.76c-3.904-6.89-5.884-14.128-5.884-21.513 0-23.722 19.324-46.583 43.913-46.583 23.394 0 43.914 21.768 43.914 46.583 0 4.854 3.931 8.789 8.782 8.789 4.85 0 8.783-3.935 8.783-8.79 0-34.778-28.154-64.16-61.479-64.16-2.94 0-5.865.239-8.76.69-.005-.232-.022-.457-.022-.69 0-19.614 15.911-35.156 35.13-35.156 9.382 0 18.207 3.657 24.848 10.296a8.78 8.78 0 0 0 12.42-.006 8.794 8.794 0 0 0-.006-12.43c-8.012-8.009-18.146-13.117-29.129-14.81 7.745-11.505 20.625-20.843 35.78-20.843 23.394 0 43.913 21.767 43.913 46.582v68.89zm149.305 156.11c13.832 0 26.935-5.188 37.469-13.824 4.191 6.84 6.444 14.642 6.444 22.613 0 12.895-5.835 25.15-16.008 33.621a8.79 8.79 0 0 0-2.921 8.811c.93 3.87 1.364 7.144 1.364 10.302 0 27.281-24.658 49.33-46.888 46.288a81.135 81.135 0 0 0-1.857-.238 8.775 8.775 0 0 0-8.957 5.033c-8.637 18.623-27.357 30.656-47.69 30.656-28.563 0-52.695-25.357-52.695-55.371 0-29.078 23.639-52.735 52.695-52.735 4.85 0 8.783-3.934 8.783-8.789 0-4.854-3.933-8.789-8.783-8.789-20.97 0-39.81 9.253-52.695 23.88V194.476c0-9.693 7.88-17.579 17.565-17.579 4.85 0 8.782-3.934 8.782-8.789 0-4.854-3.932-8.789-8.782-8.789a34.883 34.883 0 0 0-17.565 4.73V95.16c0-24.815 20.52-46.582 43.913-46.582 15.155 0 28.034 9.338 35.78 20.843-10.983 1.692-21.116 6.8-29.13 14.81a8.793 8.793 0 0 0-.007 12.43 8.778 8.778 0 0 0 12.42.006c6.644-6.639 15.468-10.296 24.85-10.296 19.315 0 35.13 15.633 35.13 35.156 0 .232-.017.458-.022.69-2.895-.451-5.82-.69-8.76-.69-33.325 0-61.479 29.382-61.479 64.16 0 4.855 3.933 8.79 8.783 8.79s8.782-3.935 8.782-8.79c0-24.814 20.52-46.582 43.914-46.582 24.575 0 43.913 22.85 43.913 46.583 0 7.385-1.98 14.624-5.884 21.513a8.793 8.793 0 0 0 2.94 11.76c12.842 8.141 20.509 21.988 20.509 37.039 0 24.9-20.148 46.582-43.913 46.582-4.85 0-8.783 3.935-8.783 8.79 0 4.853 3.933 8.788 8.783 8.788z"/><path d="M226.772 219.046a8.75 8.75 0 0 0-12.355-.687c-28.06 25.099-72.917 5.04-72.917-32.609a8.75 8.75 0 0 0-8.75-8.75 8.75 8.75 0 0 0-8.75 8.75c0 30.376 22.231 55.646 51.275 60.425-3.369 10.612-13.312 18.325-25.025 18.325a8.75 8.75 0 0 0-8.75 8.75 8.75 8.75 0 0 0 8.75 8.75c21.312 0 39.104-15.321 42.964-35.527a61.148 61.148 0 0 0 32.87-15.072 8.75 8.75 0 0 0 .688-12.355zM132.75 373c-4.833 0-8.75 3.938-8.75 8.795 0 4.858 3.917 8.795 8.75 8.795 23.306 0 43.75 21.783 43.75 46.615 0 4.857 3.917 8.795 8.75 8.795s8.75-3.938 8.75-8.795C194 402.402 165.951 373 132.75 373zM203.183 303c-29.876 0-55.528 16.27-69.035 39.927-2.401 4.206-.914 9.55 3.322 11.933 4.236 2.384 9.616.908 12.018-3.299 10.523-18.433 30.49-31.052 53.695-31.052 4.87 0 8.817-3.92 8.817-8.755 0-4.835-3.947-8.754-8.817-8.754zM361.75 264.5c-11.713 0-21.656-7.713-25.025-18.325C365.77 241.395 388 216.125 388 185.75a8.75 8.75 0 0 0-17.5 0c0 24.124-19.626 43.75-43.75 43.75a43.692 43.692 0 0 1-29.166-11.141 8.75 8.75 0 0 0-12.355.687 8.75 8.75 0 0 0 .688 12.355 61.15 61.15 0 0 0 32.869 15.072C322.646 266.68 340.438 282 361.75 282a8.75 8.75 0 0 0 0-17.5zM379.25 373c-33.201 0-61.25 29.402-61.25 64.205 0 4.857 3.918 8.795 8.75 8.795s8.75-3.938 8.75-8.795c0-24.832 20.443-46.615 43.75-46.615 4.832 0 8.75-3.937 8.75-8.795 0-4.857-3.918-8.795-8.75-8.795zM377.853 342.927c-13.474-23.6-39.09-39.927-69.036-39.927-4.869 0-8.817 3.92-8.817 8.754 0 4.835 3.948 8.755 8.817 8.755 23.189 0 43.17 12.615 53.694 31.052 2.404 4.212 7.788 5.68 12.018 3.3 4.236-2.384 5.724-7.727 3.324-11.934z"/></g></svg>